<?xml version="1.0" encoding="UTF-8" standalone="no"?>
<svg
   xmlns:dc="http://purl.org/dc/elements/1.1/"
   xmlns:cc="http://creativecommons.org/ns#"
   xmlns:rdf="http://www.w3.org/1999/02/22-rdf-syntax-ns#"
   xmlns:svg="http://www.w3.org/2000/svg"
   xmlns="http://www.w3.org/2000/svg"
   viewBox="0 0 1152.76 1587.4"
   height="1587.4"
   width="1152.76"
   xml:space="preserve"
   id="svg2"
   version="1.1"><metadata
     id="metadata8"><rdf:RDF><cc:Work
         rdf:about=""><dc:format>image/svg+xml</dc:format><dc:type
           rdf:resource="http://purl.org/dc/dcmitype/StillImage" /></cc:Work></rdf:RDF></metadata><defs
     id="defs6"><clipPath
       id="clipPath20"
       clipPathUnits="userSpaceOnUse"><path
         id="path18"
         d="M 0,1190.55 H 864.57 V 0 H 0 Z" /></clipPath><clipPath
       id="clipPath76"
       clipPathUnits="userSpaceOnUse"><path
         id="path74"
         d="M 0,1190.55 H 864.57 V 0 H 0 Z" /></clipPath></defs><g
     transform="matrix(1.3333333,0,0,-1.3333333,0,1587.4)"
     id="g10"><path
       id="path12"
       style="fill:#c21729;fill-opacity:1;fill-rule:nonzero;stroke:none"
       d="M 0,0 H 864.57 V 1190.325 H 0 Z" /><g
       id="g14"><g
         clip-path="url(#clipPath20)"
         id="g16"><g
           transform="translate(483.9841,726.0359)"
           id="g22"><path
             id="path24"
             style="fill:#ffffff;fill-opacity:1;fill-rule:nonzero;stroke:none"
             d="m 0,0 c -172.936,40.958 -319.216,-6.41 -319.216,-52.011 0,-45.6 116.867,-82.567 261.029,-82.567 77.767,0 147.592,10.757 195.413,27.824 0,0 -138.526,-26.524 -273.104,2.733 0,0 -61.763,11.052 -54.611,47.459 7.151,36.408 100.12,47.46 117.674,47.46 l -29.906,-86.468 c 0,0 274.356,-27.956 316.615,47.46 0,0 33.807,64.363 -182.037,87.118 0,0 -183.338,9.752 -271.757,-20.154 0,0 175.537,32.507 287.36,-14.303 111.823,-46.81 -61.113,-86.468 -78.016,-85.818 z" /></g></g></g><text
       id="text28"
       style="font-variant:normal;font-weight:600;font-stretch:normal;font-size:73.71700287px;font-family:'Conthrax Sb';-inkscape-font-specification:ConthraxSb-Regular;writing-mode:lr-tb;fill:#ffffff;fill-opacity:1;fill-rule:nonzero;stroke:none"
       transform="matrix(1,0,0,-1,181.499,501.8301)"><tspan
         id="tspan26"
         y="0"
         x="0">a</tspan></text>
<text
       id="text32"
       style="font-variant:normal;font-weight:600;font-stretch:normal;font-size:71.85420227px;font-family:'Conthrax Sb';-inkscape-font-specification:ConthraxSb-Regular;writing-mode:lr-tb;fill:#ffffff;fill-opacity:1;fill-rule:nonzero;stroke:none"
       transform="matrix(1,0,0,-0.8015036,180.8447,444.4238)"><tspan
         id="tspan30"
         y="0"
         x="0">D</tspan></text>
<text
       id="text36"
       style="font-variant:normal;font-weight:600;font-stretch:normal;font-size:66.35050201px;font-family:'Conthrax Sb';-inkscape-font-specification:ConthraxSb-Regular;writing-mode:lr-tb;fill:#ffffff;fill-opacity:1;fill-rule:nonzero;stroke:none"
       transform="matrix(1,0,0,-0.86798743,511.4194,501.9482)"><tspan
         id="tspan34"
         y="0"
         x="0">D</tspan></text>
<text
       id="text42"
       style="font-variant:normal;font-weight:600;font-stretch:normal;font-size:73.71700287px;font-family:'Conthrax Sb';-inkscape-font-specification:ConthraxSb-Regular;writing-mode:lr-tb;fill:#ffffff;fill-opacity:1;fill-rule:nonzero;stroke:none"
       transform="matrix(1,0,0,-1,250.8975,444.4092)"><tspan
         id="tspan38"
         y="0"
         x="0">e</tspan><tspan
         id="tspan40"
         y="0.147434"
         x="125.98235 191.44305">or</tspan></text>
<text
       id="text46"
       style="font-variant:normal;font-weight:600;font-stretch:normal;font-size:57.59140015px;font-family:'Conthrax Sb';-inkscape-font-specification:ConthraxSb-Regular;writing-mode:lr-tb;fill:#ffffff;fill-opacity:1;fill-rule:nonzero;stroke:none"
       transform="matrix(1,0,0,-1,495.229,444.3809)"><tspan
         id="tspan44"
         y="0"
         x="0">T</tspan></text>
<text
       id="text50"
       style="font-variant:normal;font-weight:600;font-stretch:normal;font-size:73.71700287px;font-family:'Conthrax Sb';-inkscape-font-specification:ConthraxSb-Regular;writing-mode:lr-tb;fill:#ffffff;fill-opacity:1;fill-rule:nonzero;stroke:none"
       transform="matrix(1,0,0,-1,557.0132,444.3867)"><tspan
         id="tspan48"
         y="0"
         x="0 65.534416">es</tspan></text>
<text
       id="text54"
       style="font-variant:normal;font-weight:600;font-stretch:normal;font-size:57.59140015px;font-family:'Conthrax Sb';-inkscape-font-specification:ConthraxSb-Regular;writing-mode:lr-tb;fill:#ffffff;fill-opacity:1;fill-rule:nonzero;stroke:none"
       transform="matrix(1,0,0,-1,240.1055,502.0068)"><tspan
         id="tspan52"
         y="0"
         x="0">L</tspan></text>
<text
       id="text58"
       style="font-variant:normal;font-weight:600;font-stretch:normal;font-size:73.71700287px;font-family:'Conthrax Sb';-inkscape-font-specification:ConthraxSb-Regular;writing-mode:lr-tb;fill:#ffffff;fill-opacity:1;fill-rule:nonzero;stroke:none"
       transform="matrix(1,0,0,-1,285.8711,501.8301)"><tspan
         id="tspan56"
         y="0"
         x="0">e</tspan></text>
<text
       id="text62"
       style="font-variant:normal;font-weight:600;font-stretch:normal;font-size:57.59140015px;font-family:'Conthrax Sb';-inkscape-font-specification:ConthraxSb-Regular;writing-mode:lr-tb;fill:#ffffff;fill-opacity:1;fill-rule:nonzero;stroke:none"
       transform="matrix(1,0,0,-1,345.2847,502.0068)"><tspan
         id="tspan60"
         y="0"
         x="0">J</tspan></text>
<text
       id="text68"
       style="font-variant:normal;font-weight:600;font-stretch:normal;font-size:73.71700287px;font-family:'Conthrax Sb';-inkscape-font-specification:ConthraxSb-Regular;writing-mode:lr-tb;fill:#ffffff;fill-opacity:1;fill-rule:nonzero;stroke:none"
       transform="matrix(1,0,0,-1,389.5898,501.8301)"><tspan
         id="tspan64"
         y="0"
         x="0 57.49926">an</tspan><tspan
         id="tspan66"
         y="-0.147434"
         x="183.4079 229.48102">ro</tspan></text>
<g
       id="g70"><g
         clip-path="url(#clipPath76)"
         id="g72"><g
           transform="translate(548.4215,476.0093)"
           id="g78"><path
             id="path80"
             style="fill:#ffffff;fill-opacity:1;fill-rule:nonzero;stroke:none"
             d="m 0,0 h -53.87 c -0.181,0 -0.328,0.147 -0.328,0.328 v 8.027 c 0,0.182 0.147,0.328 0.328,0.328 H 0 c 0.181,0 0.328,-0.146 0.328,-0.328 V 0.328 C 0.328,0.147 0.181,0 0,0" /></g><g
           transform="translate(317.9941,445.364)"
           id="g82"><path
             id="path84"
             style="fill:#ffffff;fill-opacity:1;fill-rule:nonzero;stroke:none"
             d="m 0,0 v 39.297 h 47.219 c 0.26,0 0.493,-0.042 0.731,-0.158 1.42,-0.686 6.63,-3.728 6.63,-11.434 C 54.58,19.902 50.046,17.18 48.909,16.62 48.735,16.534 48.57,16.503 48.38,16.503 H 11.263 c -0.807,0 -1.462,-0.726 -1.462,-1.622 V 0.084 c 0,-0.607 -0.443,-1.099 -0.99,-1.099 H 0.915 C 0.41,-1.015 0,-0.561 0,0" /></g><g
           transform="translate(327.3166,477.8827)"
           id="g86"><path
             id="path88"
             style="fill:#c21729;fill-opacity:1;fill-rule:nonzero;stroke:none"
             d="m 0,0 v -8.244 h 31.229 c 0,0 4.706,-0.056 4.706,4.122 C 35.935,0.056 31.461,0 31.461,0 Z" /></g></g></g></g></svg>